Coordinates
version=1
nRows=10
nColumns=22
inDegrees=yes

Units are S.I. units (second, meters, Newtons, ...)
If the header above contains a line with 'inDegrees', this indicates whether rotational values are in degrees (yes) or radians (no).

endheader
time	pelvis_tilt	pelvis_list	pelvis_rotation	pelvis_tx	pelvis_ty	pelvis_tz	hip_flexion_r	hip_adduction_r	hip_rotation_r	knee_angle_r	ankle_angle_r	subtalar_angle_r	hip_flexion_l	hip_adduction_l	hip_rotation_l	knee_angle_l	ankle_angle_l	subtalar_angle_l	lumbar_extension	lumbar_bending	lumbar_rotation
      3.57000000	     -3.44980826	      0.18477854	     24.72098737	     -0.25123473	      0.88625676	     -0.61364456	     31.84892136	      0.43898513	    -23.80019754	    -18.84735144	      3.01381680	     -5.85682449	    -12.43558355	     -3.58890005	     -8.76021500	    -23.58748499	     13.40748599	      5.87218737	     -6.02428579	     -0.32549688	    -21.18167388
      3.58000000	     -3.33498471	     -0.45383009	     23.85379710	     -0.23886684	      0.88600264	     -0.61512686	     31.93333271	      1.54568080	    -23.06475925	    -19.89443656	      2.36818299	     -6.43978991	    -12.28544305	     -4.33678236	     -8.92215043	    -25.08004175	     11.89860570	      6.18294938	     -5.46753922	      0.51820553	    -20.64461395
      3.59000000	     -3.26515664	     -1.04289869	     22.89716151	     -0.22639507	      0.88600631	     -0.61629084	     32.02791824	      2.66876690	    -22.17708400	    -20.94226098	      1.97595404	     -7.19899291	    -12.02539631	     -5.01790661	     -9.07887351	    -26.70974337	     10.04054142	      6.93299139	     -4.90327092	      1.27935038	    -20.11945180
      3.60000000	     -3.18863906	     -1.57205726	     21.84261849	     -0.21387196	      0.88637965	     -0.61714777	     32.00544013	      3.83134505	    -21.14172045	    -21.86060011	      1.66017419	     -7.68154773	    -11.71998372	     -5.62871791	     -9.20380483	    -28.44016002	      7.91786385	      7.53073364	     -4.40114446	      1.97789967	    -19.55570401
      3.61000000	     -3.11166306	     -1.99803193	     20.76074569	     -0.20142728	      0.88709620	     -0.61778909	     31.85130984	      4.92803084	    -20.09499141	    -22.66933676	      1.52899823	     -8.06684281	    -11.33257581	     -6.14319707	     -9.23415009	    -30.30069280	      5.51912826	      8.13123599	     -3.97823681	      2.56266769	    -19.03945765
      3.62000000	     -3.02670235	     -2.30398802	     19.68760375	     -0.18916382	      0.88814193	     -0.61826499	     31.53985626	      5.91613357	    -19.08059038	    -23.34428635	      1.56950215	     -8.34917887	    -10.84721500	     -6.55344783	     -9.14305330	    -32.29792338	      2.88515484	      8.62213516	     -3.65162874	      3.01839231	    -18.60590771
      3.63000000	     -2.94742859	     -2.49517121	     18.68973028	     -0.17714254	      0.88946081	     -0.61870843	     31.09090761	      6.73349482	    -18.25019179	    -23.89706130	      1.82793205	     -8.59372538	    -10.22446719	     -6.85210957	     -8.81358459	    -34.41809008	      0.00705542	      9.15820315	     -3.39110228	      3.34452133	    -18.25568792
      3.64000000	     -2.86624468	     -2.57232470	     17.75734388	     -0.16545705	      0.89100333	     -0.61905221	     30.50257199	      7.40752296	    -17.47904689	    -24.29772971	      2.19939801	     -8.76532698	     -9.44251979	     -7.05255544	     -8.32675920	    -36.68737355	     -2.99992935	      9.48614047	     -3.21414792	      3.53740522	    -18.00576969
      3.65000000	     -2.78288363	     -2.56005993	     16.93714355	     -0.15416086	      0.89270324	     -0.61939916	     29.80996063	      7.91816285	    -16.87404465	    -24.58188914	      2.67468729	     -8.91429272	     -8.46952378	     -7.17797048	     -7.64674997	    -39.11255363	     -6.09580325	      9.72126054	     -3.10390589	      3.62630714	    -17.87524914
      3.66000000	     -2.70515569	     -2.49846126	     16.22574368	     -0.14324913	      0.89447555	     -0.61975303	     29.03598551	      8.31429154	    -16.40362323	    -24.72655165	      3.22730226	     -9.05745065	     -7.29146935	     -7.25974409	     -6.80443961	    -41.67793830	     -9.18154063	      9.83279099	     -3.03351220	      3.65027881	    -17.81791025
